<svg version="1.0" xmlns="http://www.w3.org/2000/svg" width="533.333" height="190.667" viewBox="0 0 400 143"><path d="M37.5 1.6c-9.7 3.1-18 10.1-22 18.6-1.3 2.7-2.9 3.8-7.5 5.6-6.2 2.4-8.9 4.6-7.1 5.7.6.3 2.8.1 4.8-.4 6-1.7 6-1.7 6.5 6.6.6 9.7 3.4 15.9 10.3 23 7.6 7.9 11.8 7 5-.9-4.4-5.3-7-12.7-6.8-20.3.2-9.7 1.1-11.1 8-11.8 12.1-1.3 33.2 2.2 42.8 7 1.7.8 4.7 3.1 6.8 5.1 7.1 6.9 4.2 14.5-8.3 21.1-10.7 5.7-6.4 7.2 5.4 1.7 26.9-12.4 22.8-32.6-8.2-40.7-9.2-2.4-26.7-3.5-33.9-2.2-2.9.6-5.3.7-5.3.3 0-1.5 6.5-6.3 12-8.9 4.5-2.1 7-2.6 13.2-2.6 6.8.1 8.4.4 14.9 3.8 3.9 2 7.6 3.4 8.1 3.1 1.8-1.1-7.4-9.2-13.4-11.9C55.2.1 44.7-.7 37.5 1.6zM117.5 32.7c-1.6.9-4 2.5-5.2 3.6-2.3 2-2.3 2.4-2.3 26.3 0 18.3.3 24.5 1.3 25.1.6.4 5.3.9 10.4 1.1 8 .4 9.8.1 13.8-1.8 2.9-1.4 5.6-3.8 7.3-6.3 2.4-3.6 2.7-5 2.7-12.8 0-9.8-1.2-12.3-7.6-16.7-2.9-2-4.4-2.3-10.1-2l-6.7.4-.3-9.2-.3-9.2-3 1.5zm15.4 27.9c1.5 2 2.1 4.1 2.1 8 0 7.2-3.6 11.6-9.6 11.8l-3.9.1-.3-9.9c-.1-5.5 0-10.6.2-11.3.3-.8 2.2-1.3 5-1.3 3.6 0 4.8.5 6.5 2.6zM248.5 32.7c-6.1 3.2-7.5 5.2-7.5 11V49h-5.2c-11.3.1-18.5 6.6-19.5 17.8-.9 9.7 3.2 17.8 10.4 20.8 3.8 1.6 16.2 1.8 21.6.3l3.7-1V59c0-15.4-.1-28-.2-28-.2.1-1.6.8-3.3 1.7zm-8.7 25.1c.9.6 1.2 3.7 1 11.8-.3 10.6-.4 10.9-2.6 11.2-3.6.5-8.1-1.8-9.7-4.9-1.8-3.5-1.9-10.6-.1-13.8 2.3-4.1 8.2-6.3 11.4-4.3zM153 69v20.1l5.1-.3 5.2-.3-.2-9.2c-.3-14.8 2-20 9.7-21.2 3.4-.6 3.7-.9 4-4.4.2-2.7-.1-3.9-1.2-4.3-2.5-1-8 .4-10.4 2.6-2.7 2.5-3 2.5-3.4-.3-.2-1.8-1-2.3-4.5-2.5l-4.3-.3V69zM182.8 49.7c-1.3.3-1.8 1.5-1.8 4.4v4l6.3-.6c7-.7 10.5.6 11.8 4.2.8 2.2.6 2.3-3.9 2.3-6.5 0-11 1.5-14.4 4.7-2.3 2.2-2.8 3.5-2.8 7.5 0 5.8 2.2 9.6 6.7 11.4 3.9 1.7 16.2 1.8 21.6.3l3.9-1-.4-14.4c-.3-16.1-1.2-18.3-7.9-21.7-3.2-1.7-14.5-2.3-19.1-1.1zM199.3 76c0 4.2-.2 4.5-2.8 4.8-6.3.8-10.7-2.7-8.5-6.7 1.1-2.1 3.7-3 8.4-2.7 2.8.1 2.9.3 2.9 4.6zM268.4 50.4c-7.3 3.2-11.8 14.9-9.5 24.2 2.6 10.1 8.6 14.4 20 14.4 10.2 0 12.1-1 12.1-6.1 0-3.8-.2-4.1-2.2-3.6-9.6 2.3-15.4 1.5-18.3-2.6-3-4.3-2.2-4.6 10.8-4.9l12.2-.3-.2-5.8C292.9 55 287 49 277.1 49c-3.1.1-7 .7-8.7 1.4zm12.8 8.3c.8 1 1.8 2.6 2.1 3.5.6 1.6-.1 1.8-6.8 1.8-8.2 0-8.9-.7-5-4.5 2.9-2.9 7.5-3.3 9.7-.8zM304.3 51c-4 2.4-5.3 4.8-5.3 9.7 0 4.9 2.2 7.4 10.1 11.3 6.7 3.4 8.2 5.6 5.3 7.7-1.9 1.4-6.3 1.3-13.6-.3-2.7-.6-2.8-.5-2.8 3.4 0 3.8.3 4.1 3.6 5.2 2 .7 6.9 1 11 .8 6.8-.3 7.7-.6 10.7-3.6 2.7-2.8 3.2-3.9 3.2-8.1 0-6.2-1.9-8.5-10.2-12.3-4.6-2.1-6.3-3.3-6.3-4.8 0-2.6 4.1-3.6 10.2-2.3l4.8 1v-3.8c0-4.9-1.8-5.9-10.7-5.9-5 0-7.7.5-10 2zM341.4 50.4c-4.4 1.9-8.1 7.3-9.5 13.4-2.1 9.9 2.3 20.7 9.7 23.8 3.8 1.6 14.1 1.9 17.8.4l2.6-.9-2-4c-2-3.7-2.2-3.8-5.3-2.9-6.8 2.1-11.9-2.7-11.9-11.2s4.4-12.7 11.5-11c3.5.7 3.7.6 5.6-3l1.9-3.8-2.4-1.1c-3.4-1.5-14.2-1.3-18 .3z"/><path d="M372.5 50.4c-13.5 5.9-13.4 31.6.2 37.2 5.3 2.3 14.4 1.8 18.4-.9 4.5-3.1 7.7-7.9 8.5-13.3 1.4-9.5-1.7-17.5-8.5-22.1-4-2.7-13.5-3.1-18.6-.9zm13.2 9c2.6 2.2 2.8 3 2.8 9.6s-.2 7.4-2.8 9.6c-1.5 1.3-3.6 2.4-4.5 2.4-7.6 0-10.8-15.5-4.6-21.7 3-2.9 5.6-2.9 9.1.1zM51.3 59.7 47 62.1V89h10V73.6c0-8.5-.3-15.7-.7-15.9-.5-.2-2.7.7-5 2zM41.2 65.6c-2 1.4-2.2 2.3-2.2 12.5V89h6V76.5c0-6.9-.3-12.5-.8-12.5-.4 0-1.8.7-3 1.6zM111.6 104.6c-1.3 1.3-1.6 4.5-1.6 19V141l2.6 1c3.6 1.4 8.9 1.2 12.9-.4 5-2.1 7.5-6.8 7.5-14 0-5.3-.3-6.1-3.5-9.3-3.3-3.3-3.8-3.5-9-3.1l-5.5.3v-6.3c0-6.4-.7-7.3-3.4-4.6zm14.8 16.6c1 1.4 1.6 4.4 1.6 7.6 0 6.9-2.9 10.2-9 10.2h-4v-9.3c0-5.2.3-9.7.7-10 .3-.4 2.6-.7 4.9-.7 3.3 0 4.6.5 5.8 2.2zM194.7 104.3c-1.6 1.1-1.7 3.2-1.5 19.7.3 17.7.4 18.5 2.3 18.5 1.8 0 2.1-.8 2.5-6.7l.5-6.7 5.8 7c4.3 5.1 6.4 6.9 8.2 6.9 1.4 0 2.5-.3 2.5-.6 0-.4-2.7-3.7-6-7.4s-6-7.1-6-7.6 2.6-3.4 5.7-6.6l5.7-5.8h-2.9c-2.4 0-4.1 1.2-8.2 5.7l-5.2 5.8-.1-11.8c0-6.4-.4-11.7-.8-11.7-.5 0-1.6.6-2.5 1.3zM139.7 115.7c-.4.3-.7 1.2-.7 2 0 .9 1.6 1.3 5.9 1.3 6.1 0 7.4.7 8.4 4.7.5 2.2.2 2.3-5 2.3-4.7 0-5.8.4-8.5 3-2.5 2.6-2.9 3.6-2.4 6.3 1.1 6 6.1 8.4 15.2 7.2l5.6-.7-.4-11c-.3-10.6-.4-11.1-3.1-13.4-2.3-1.9-3.9-2.4-8.6-2.4-3.2 0-6.1.3-6.4.7zm13.6 18.3c0 4.4 0 4.5-3.6 4.8-5.1.4-7.7-1.2-7.7-4.9 0-3.5 2.5-4.9 7.9-4.6 3.4.2 3.4.3 3.4 4.7zM165.7 115.7c-1.6.4-1.7 1.7-1.5 13.6.3 12.4.4 13.2 2.3 13.2s2-.8 2.3-11.8l.3-11.7h4.8c6.7 0 7.5 1.2 8.1 13.4.5 9.5.6 10.1 2.8 10.4 2.2.3 2.2.2 2.2-10.3v-10.7l-3.4-3.4c-3.2-3.2-3.8-3.4-9.7-3.3-3.5.1-7.2.3-8.2.6z"/></svg>